<svg xmlns="http://www.w3.org/2000/svg" width="576" height="512">
  <path d="M112 64H16C7.2 64 0 71.2 0 80v352c0 8.8 7.2 16 16 16h96c8.8 0 16-7.2 16-16V80c0-8.8-7.2-16-16-16zm-16 96H32v-32h64v32zM272 64h-96c-8.8 0-16 7.2-16 16v352c0 8.8 7.2 16 16 16h96c8.8 0 16-7.2 16-16V80c0-8.8-7.2-16-16-16zm-16 96h-64v-32h64v32z"/><path d="M382.544 88.74l-85.732 43.197c-7.858 3.959-11.048 13.629-7.089 21.488l143.989 285.774c3.959 7.859 13.629 11.049 21.488 7.089l85.732-43.196c7.858-3.96 11.048-13.63 7.089-21.487L404.032 95.83c-3.96-7.859-13.63-11.05-21.488-7.09z"/>
</svg>
