<!-- Generated by IcoMoon.io -->
<svg version="1.1" xmlns="http://www.w3.org/2000/svg" width="1024" height="1024" viewBox="0 0 1024 1024">
<title></title>
<g id="icomoon-ignore">
</g>
<path fill="#000" d="M1023.232 348.352c-0.256-1.28-0.448-2.56-0.768-3.712l-0.64-2.112c-0.384-1.088-0.768-2.176-1.28-3.2-0.192-0.768-0.64-1.472-0.896-2.176l-1.472-2.88-1.28-2.048-1.92-2.56-1.92-1.92-2.56-1.92-1.92-1.28-2.56-1.92-1.92-1.28-0.64-0.64-467.136-313.024c-14.72-9.856-33.92-9.856-48.64 0l-473.472 315.84-1.6 1.728-2.176 2.368-1.536 1.92-1.92 2.56c-0.64 0.64-1.28 1.28-1.28 1.92l-1.92 2.56-0.64 2.56c-0.64 0.64-0.64 1.92-1.28 3.2l-0.64 1.92c-0.64 1.28-0.64 2.56-0.64 3.84v1.92c-0.576 1.984-0.576 3.904-0.576 5.824v312c0 1.92 0.128 3.84 0.384 5.76l0.448 1.92c0.192 1.28 0.384 2.56 0.832 3.712l0.64 2.112c0.384 1.152 0.64 2.24 1.152 3.2l0.96 2.112c0 0.64 0.64 1.92 1.28 2.56l1.28 1.92c0.64 0.64 1.28 1.92 1.92 2.56l1.28 1.92 1.92 1.92c0.64 0.64 0.64 1.28 1.28 1.28l2.56 1.92 1.92 1.28 0.64 0.64 467.84 312.32c7.040 5.12 16 7.040 24.32 7.040s16.64-2.56 24.32-7.68l475.584-315.968 2.24-2.368 1.536-1.92 1.92-2.56 1.28-2.048 1.28-2.944 0.64-2.304 1.28-3.2 0.64-1.92 1.28-3.2v-320c0-1.92 0-3.84-0.64-5.76l-0.64-1.92zM512 616.064l-155.648-104.064 155.648-104.064 155.648 104.064-155.648 104.064zM467.968 331.52l-190.72 127.552-153.984-103.040 344.704-229.76v205.248zM198.080 512l-110.080 73.6v-147.2l110.080 73.6zM277.248 564.992l190.72 127.552v205.44l-344.704-229.76 153.984-103.040zM555.968 692.544l190.72-127.36 154.048 103.040-344.768 229.76v-204.8zM825.92 512l110.080-73.6v147.2l-110.080-73.6zM746.752 459.072l-190.72-127.552v-205.44l344.704 229.76-153.984 103.040z"></path>
</svg>
