<!-- Generated by IcoMoon.io -->
<svg version="1.1" xmlns="http://www.w3.org/2000/svg" width="1024" height="1024" viewBox="0 0 1024 1024">
<title></title>
<g id="icomoon-ignore">
</g>
<path fill="#000" d="M170.080 296.765l247.52 215.235-247.581 215.287c-6.206-5.878-10.019-14.235-10.019-23.507v-383.562c0-9.253 3.874-17.582 10.080-23.454zM885.981 296.713c6.206 5.878 10.019 14.235 10.019 23.507v383.562c0 9.252-3.874 17.582-10.080 23.454l-247.52-215.235 247.581-215.287zM614.459 532.819l233.541 203.181h-640l233.541-203.181 86.459 75.181 86.459-75.181zM192.115 256c-35.41 0-64.115 28.624-64.115 63.81v384.38c0 35.241 28.472 63.81 64.115 63.81h671.77c35.41 0 64.115-28.624 64.115-63.81v-384.38c0-35.241-28.472-63.81-64.115-63.81h-671.77zM528 566.4l-320-278.4h640l-320 278.4z"></path>
</svg>
